<mxfile host="65bd71144e">
    <diagram id="IHy4brF8DcbClrxb9_Ci" name="Page-1">
        <mxGraphModel dx="830" dy="470" grid="1" gridSize="10" guides="1" tooltips="1" connect="1" arrows="1" fold="1" page="1" pageScale="1" pageWidth="827" pageHeight="1169" math="0" shadow="0">
            <root>
                <mxCell id="0"/>
                <mxCell id="1" parent="0"/>
                <mxCell id="edge1" style="html=1;exitX=0;exitY=0.25;entryX=1;entryY=0.25;jettySize=auto;curved=1;endArrow=block;dashed=0;endFill=1;exitDx=0;exitDy=0;entryDx=0;entryDy=0;strokeWidth=4;strokeColor=#CC00CC;startArrow=oval;startFill=1;" parent="1" source="ZbygJh6ZweGKEKTTffZ8-1" target="CMv6oAulMgxnajZp-D9U-34" edge="1">
                    <mxGeometry relative="1" as="geometry">
                        <Array as="points">
                            <mxPoint x="640" y="410"/>
                        </Array>
                    </mxGeometry>
                </mxCell>
                <mxCell id="edge2" style="html=1;exitX=1;exitY=0.25;jettySize=auto;curved=1;endArrow=block;dashed=0;endFill=1;strokeWidth=4;strokeColor=#CC0066;exitDx=0;exitDy=0;entryX=0;entryY=0.25;entryDx=0;entryDy=0;startArrow=oval;startFill=1;" parent="1" source="ZbygJh6ZweGKEKTTffZ8-1" target="CMv6oAulMgxnajZp-D9U-40" edge="1">
                    <mxGeometry relative="1" as="geometry">
                        <Array as="points">
                            <mxPoint x="920" y="366"/>
                        </Array>
                        <mxPoint x="1092.5" y="242" as="targetPoint"/>
                    </mxGeometry>
                </mxCell>
                <mxCell id="edge3" style="html=1;exitX=1;exitY=0.75;jettySize=auto;curved=1;endArrow=block;dashed=0;endFill=1;exitDx=0;exitDy=0;entryX=0.25;entryY=0;entryDx=0;entryDy=0;strokeWidth=4;strokeColor=#0000CC;startArrow=oval;startFill=1;" parent="1" source="ZbygJh6ZweGKEKTTffZ8-1" target="CMv6oAulMgxnajZp-D9U-17" edge="1">
                    <mxGeometry relative="1" as="geometry">
                        <mxPoint x="1160" y="822" as="targetPoint"/>
                        <Array as="points">
                            <mxPoint x="960" y="430"/>
                        </Array>
                    </mxGeometry>
                </mxCell>
                <mxCell id="edge4" style="html=1;entryX=0.5;entryY=0;jettySize=auto;curved=1;endArrow=block;dashed=0;endFill=1;entryDx=0;entryDy=0;strokeWidth=4;strokeColor=#00CC00;exitX=0;exitY=0.75;exitDx=0;exitDy=0;startArrow=oval;startFill=1;" parent="1" source="ZbygJh6ZweGKEKTTffZ8-1" target="CMv6oAulMgxnajZp-D9U-10" edge="1">
                    <mxGeometry relative="1" as="geometry">
                        <Array as="points">
                            <mxPoint x="600" y="450"/>
                        </Array>
                        <mxPoint x="750" y="612" as="sourcePoint"/>
                    </mxGeometry>
                </mxCell>
                <mxCell id="edge5" style="html=1;exitX=0.5;exitY=1;jettySize=auto;curved=1;endArrow=block;dashed=0;endFill=1;exitDx=0;exitDy=0;strokeWidth=4;strokeColor=#FF8000;entryX=0.5;entryY=0;entryDx=0;entryDy=0;startArrow=oval;startFill=1;" parent="1" source="ZbygJh6ZweGKEKTTffZ8-1" target="CMv6oAulMgxnajZp-D9U-26" edge="1">
                    <mxGeometry relative="1" as="geometry">
                        <Array as="points">
                            <mxPoint x="870" y="590"/>
                        </Array>
                    </mxGeometry>
                </mxCell>
                <mxCell id="edge6" style="html=1;exitX=-0.015;exitY=0.623;entryX=0.5;entryY=0;jettySize=auto;curved=1;endArrow=block;dashed=0;endFill=1;exitDx=0;exitDy=0;entryDx=0;entryDy=0;exitPerimeter=0;strokeColor=#006600;strokeWidth=4;" parent="1" source="CMv6oAulMgxnajZp-D9U-40" target="CMv6oAulMgxnajZp-D9U-5" edge="1">
                    <mxGeometry relative="1" as="geometry">
                        <Array as="points">
                            <mxPoint x="820" y="440"/>
                        </Array>
                    </mxGeometry>
                </mxCell>
                <mxCell id="edge7" style="html=1;exitX=0;exitY=0.25;entryX=1;entryY=0;jettySize=auto;curved=1;endArrow=block;dashed=0;endFill=1;entryDx=0;entryDy=0;exitDx=0;exitDy=0;strokeColor=#006600;strokeWidth=4;startArrow=oval;startFill=1;startSize=6;" parent="1" source="CMv6oAulMgxnajZp-D9U-17" target="CMv6oAulMgxnajZp-D9U-5" edge="1">
                    <mxGeometry relative="1" as="geometry">
                        <Array as="points">
                            <mxPoint x="820" y="513"/>
                        </Array>
                    </mxGeometry>
                </mxCell>
                <mxCell id="edge10" style="html=1;exitX=0.25;exitY=0;jettySize=auto;curved=1;endArrow=block;dashed=0;endFill=1;exitDx=0;exitDy=0;strokeColor=#CC00CC;strokeWidth=4;startArrow=oval;startFill=1;entryX=0.5;entryY=1;entryDx=0;entryDy=0;" parent="1" source="CMv6oAulMgxnajZp-D9U-10" target="CMv6oAulMgxnajZp-D9U-34" edge="1">
                    <mxGeometry relative="1" as="geometry">
                        <Array as="points">
                            <mxPoint x="520" y="510"/>
                        </Array>
                        <mxPoint x="520" y="490" as="targetPoint"/>
                    </mxGeometry>
                </mxCell>
                <mxCell id="edge12" style="html=1;jettySize=auto;curved=1;endArrow=block;dashed=0;endFill=1;entryX=0;entryY=0;entryDx=0;entryDy=0;strokeColor=#0000CC;strokeWidth=4;startArrow=oval;exitX=0.75;exitY=0;exitDx=0;exitDy=0;startFill=1;" parent="1" source="CMv6oAulMgxnajZp-D9U-10" target="CMv6oAulMgxnajZp-D9U-17" edge="1">
                    <mxGeometry relative="1" as="geometry">
                        <mxPoint x="1170" y="782" as="targetPoint"/>
                        <Array as="points">
                            <mxPoint x="810" y="400"/>
                        </Array>
                        <mxPoint x="510" y="492" as="sourcePoint"/>
                    </mxGeometry>
                </mxCell>
                <mxCell id="edge9" style="html=1;exitX=1.002;exitY=0.129;entryX=0.25;entryY=0;jettySize=auto;curved=1;endArrow=block;dashed=0;endFill=1;entryDx=0;entryDy=0;exitDx=0;exitDy=0;exitPerimeter=0;strokeColor=#006600;strokeWidth=4;startArrow=oval;startFill=1;" parent="1" source="CMv6oAulMgxnajZp-D9U-30" target="CMv6oAulMgxnajZp-D9U-5" edge="1">
                    <mxGeometry relative="1" as="geometry">
                        <Array as="points">
                            <mxPoint x="660" y="300"/>
                        </Array>
                        <mxPoint x="559.24" y="930.1519999999998" as="sourcePoint"/>
                    </mxGeometry>
                </mxCell>
                <mxCell id="edge15" style="html=1;exitX=0.005;exitY=0.086;jettySize=auto;curved=1;endArrow=block;dashed=0;endFill=1;exitDx=0;exitDy=0;strokeColor=#CC00CC;strokeWidth=4;startArrow=oval;startFill=1;exitPerimeter=0;entryX=0.25;entryY=1;entryDx=0;entryDy=0;" parent="1" source="CMv6oAulMgxnajZp-D9U-1" target="CMv6oAulMgxnajZp-D9U-34" edge="1">
                    <mxGeometry relative="1" as="geometry">
                        <Array as="points">
                            <mxPoint x="420" y="600"/>
                        </Array>
                        <mxPoint x="530" y="1259" as="sourcePoint"/>
                        <mxPoint x="490" y="520" as="targetPoint"/>
                    </mxGeometry>
                </mxCell>
                <mxCell id="edge16" style="html=1;entryX=0;entryY=0.75;jettySize=auto;curved=1;endArrow=block;dashed=0;endFill=1;entryDx=0;entryDy=0;strokeWidth=4;strokeColor=#0000CC;startArrow=oval;startFill=1;exitX=1.005;exitY=0.086;exitDx=0;exitDy=0;exitPerimeter=0;" parent="1" source="CMv6oAulMgxnajZp-D9U-1" target="CMv6oAulMgxnajZp-D9U-17" edge="1">
                    <mxGeometry relative="1" as="geometry">
                        <Array as="points">
                            <mxPoint x="820" y="590"/>
                        </Array>
                        <mxPoint x="710" y="668" as="sourcePoint"/>
                    </mxGeometry>
                </mxCell>
                <mxCell id="edge18" style="html=1;entryX=0.25;entryY=0;jettySize=auto;curved=1;endArrow=block;dashed=0;endFill=1;entryDx=0;entryDy=0;strokeWidth=4;strokeColor=#FF8000;exitX=1;exitY=0.75;exitDx=0;exitDy=0;startArrow=oval;startFill=1;" parent="1" source="JvfS2HEiLOCauHe2CTk1-27" target="CMv6oAulMgxnajZp-D9U-26" edge="1">
                    <mxGeometry relative="1" as="geometry">
                        <Array as="points">
                            <mxPoint x="784" y="700"/>
                        </Array>
                        <mxPoint x="710" y="795" as="sourcePoint"/>
                    </mxGeometry>
                </mxCell>
                <mxCell id="edge21" style="html=1;jettySize=auto;curved=1;endArrow=block;dashed=0;endFill=1;strokeWidth=4;strokeColor=#FF8000;exitX=0;exitY=0.5;exitDx=0;exitDy=0;startArrow=oval;startFill=1;entryX=1;entryY=0.5;entryDx=0;entryDy=0;" parent="1" source="JvfS2HEiLOCauHe2CTk1-12" target="CMv6oAulMgxnajZp-D9U-26" edge="1">
                    <mxGeometry relative="1" as="geometry">
                        <mxPoint x="1010" y="718" as="sourcePoint"/>
                        <Array as="points">
                            <mxPoint x="980" y="820"/>
                        </Array>
                        <mxPoint x="850" y="700" as="targetPoint"/>
                    </mxGeometry>
                </mxCell>
                <mxCell id="edge19" style="rounded=1;html=1;entryX=1;entryY=0.5;jettySize=auto;curved=1;endArrow=block;dashed=0;endFill=1;entryDx=0;entryDy=0;exitX=0.005;exitY=0.067;exitDx=0;exitDy=0;strokeWidth=4;strokeColor=#006600;startArrow=oval;startFill=1;exitPerimeter=0;" parent="1" source="JvfS2HEiLOCauHe2CTk1-17" target="CMv6oAulMgxnajZp-D9U-5" edge="1">
                    <mxGeometry relative="1" as="geometry">
                        <Array as="points">
                            <mxPoint x="870" y="575"/>
                        </Array>
                        <mxPoint x="1008.8200000000002" y="704.624" as="sourcePoint"/>
                    </mxGeometry>
                </mxCell>
                <mxCell id="ZbygJh6ZweGKEKTTffZ8-1" value="&lt;font style=&quot;font-size: 20px&quot;&gt;project.c&lt;/font&gt;" style="shape=process2;fixedSize=1;size=5;fontStyle=1;rounded=0;shadow=0;comic=0;fontFamily=Helvetica;fontSize=14;strokeColor=#000000;strokeWidth=2;fillColor=#e51400;html=1;fontColor=#ffffff;" parent="1" vertex="1">
                    <mxGeometry x="735" y="350" width="142.02" height="52" as="geometry"/>
                </mxCell>
                <mxCell id="ZbygJh6ZweGKEKTTffZ8-6" value="&lt;font style=&quot;font-size: 14px&quot;&gt;&lt;b&gt;Utils&lt;/b&gt;&lt;/font&gt;" style="shape=umlFrame;whiteSpace=wrap;html=1;fillColor=#FF8000;strokeWidth=4;strokeColor=#FF8000;swimlaneFillColor=none;container=1;" parent="1" vertex="1">
                    <mxGeometry x="620" y="850" width="286.5" height="217.5" as="geometry"/>
                </mxCell>
                <mxCell id="CMv6oAulMgxnajZp-D9U-22" value="utils.c" style="swimlane;fontStyle=1;align=center;verticalAlign=top;childLayout=stackLayout;horizontal=1;startSize=26;horizontalStack=0;resizeParent=1;resizeParentMax=0;resizeLast=0;collapsible=1;marginBottom=0;rounded=0;shadow=0;comic=0;fontFamily=Helvetica;fontSize=14;strokeColor=#000000;strokeWidth=2;fillColor=#FF8000;html=1;" parent="ZbygJh6ZweGKEKTTffZ8-6" vertex="1">
                    <mxGeometry x="20" y="77.5" width="200" height="124" as="geometry"/>
                </mxCell>
                <mxCell id="JvfS2HEiLOCauHe2CTk1-21" value="&lt;span style=&quot;color: rgb(0 , 0 , 0)&quot;&gt;enum state&lt;/span&gt;" style="text;whiteSpace=wrap;html=1;fontSize=14;fontFamily=Tahoma;fontColor=#FFFFFF;verticalAlign=middle;spacing=2;spacingLeft=4;spacingRight=4;" parent="CMv6oAulMgxnajZp-D9U-22" vertex="1">
                    <mxGeometry y="26" width="200" height="30" as="geometry"/>
                </mxCell>
                <mxCell id="CMv6oAulMgxnajZp-D9U-24" value="" style="line;strokeWidth=1;fillColor=none;align=left;verticalAlign=middle;spacingTop=-1;spacingLeft=3;spacingRight=3;rotatable=0;labelPosition=right;points=[];portConstraint=eastwest;rounded=0;shadow=0;comic=0;fontFamily=Helvetica;fontSize=14;html=1;" parent="CMv6oAulMgxnajZp-D9U-22" vertex="1">
                    <mxGeometry y="56" width="200" height="8" as="geometry"/>
                </mxCell>
                <mxCell id="JvfS2HEiLOCauHe2CTk1-26" value="&lt;span style=&quot;color: rgb(0 , 0 , 0)&quot;&gt;int modulo()&lt;/span&gt;" style="text;whiteSpace=wrap;html=1;fontSize=14;fontFamily=Tahoma;fontColor=#FFFFFF;verticalAlign=middle;spacing=2;spacingLeft=4;spacingRight=4;" parent="CMv6oAulMgxnajZp-D9U-22" vertex="1">
                    <mxGeometry y="64" width="200" height="30" as="geometry"/>
                </mxCell>
                <mxCell id="JvfS2HEiLOCauHe2CTk1-25" value="&lt;span style=&quot;color: rgb(0 , 0 , 0) ; font-family: &amp;#34;tahoma&amp;#34;&quot;&gt;unsigned int chose_change()&lt;/span&gt;" style="text;whiteSpace=wrap;html=1;fontSize=14;fontFamily=Tahoma;fontColor=#FFFFFF;verticalAlign=middle;spacing=2;spacingLeft=4;spacingRight=4;" parent="CMv6oAulMgxnajZp-D9U-22" vertex="1">
                    <mxGeometry y="94" width="200" height="30" as="geometry"/>
                </mxCell>
                <mxCell id="CMv6oAulMgxnajZp-D9U-26" value="«interface»&lt;br&gt;&lt;b&gt;utils.h&lt;br&gt;&lt;/b&gt;" style="html=1;rounded=0;shadow=0;comic=0;fontFamily=Helvetica;fontSize=14;strokeColor=#56517e;strokeWidth=0;fillColor=#FF8000;" parent="ZbygJh6ZweGKEKTTffZ8-6" vertex="1">
                    <mxGeometry x="176.5" width="110" height="50" as="geometry"/>
                </mxCell>
                <mxCell id="CMv6oAulMgxnajZp-D9U-27" value="" style="endArrow=classic;html=1;fontFamily=Helvetica;fontSize=14;startSize=23;curved=1;entryX=0.5;entryY=1;entryDx=0;entryDy=0;strokeWidth=4;strokeColor=#FF8000;" parent="ZbygJh6ZweGKEKTTffZ8-6" source="CMv6oAulMgxnajZp-D9U-22" target="CMv6oAulMgxnajZp-D9U-26" edge="1">
                    <mxGeometry width="50" height="50" relative="1" as="geometry">
                        <mxPoint x="397.5" y="-3.5" as="sourcePoint"/>
                        <mxPoint x="367.5" y="-33.5" as="targetPoint"/>
                    </mxGeometry>
                </mxCell>
                <mxCell id="ZbygJh6ZweGKEKTTffZ8-9" value="&lt;font color=&quot;#ffffff&quot; style=&quot;line-height: 1.2 ; font-size: 14px&quot;&gt;&lt;b&gt;Queue&lt;/b&gt;&lt;/font&gt;" style="shape=umlFrame;whiteSpace=wrap;html=1;fillColor=#CC0066;strokeWidth=4;strokeColor=#CC0066;swimlaneFillColor=none;container=1;" parent="1" vertex="1">
                    <mxGeometry x="965" y="90" width="355" height="347" as="geometry">
                        <mxRectangle x="925" y="17" width="80" height="20" as="alternateBounds"/>
                    </mxGeometry>
                </mxCell>
                <mxCell id="CMv6oAulMgxnajZp-D9U-36" value="&lt;font color=&quot;#ffffff&quot;&gt;queue.c&lt;/font&gt;" style="swimlane;fontStyle=1;align=center;verticalAlign=top;childLayout=stackLayout;horizontal=1;startSize=26;horizontalStack=0;resizeParent=1;resizeParentMax=0;resizeLast=0;collapsible=1;marginBottom=0;rounded=0;shadow=0;comic=0;fontFamily=Helvetica;fontSize=14;strokeColor=#000000;strokeWidth=2;fillColor=#CC0066;html=1;" parent="ZbygJh6ZweGKEKTTffZ8-9" vertex="1">
                    <mxGeometry x="125" y="20" width="210" height="244" as="geometry">
                        <mxRectangle x="1071" y="-270" width="90" height="26" as="alternateBounds"/>
                    </mxGeometry>
                </mxCell>
                <mxCell id="JvfS2HEiLOCauHe2CTk1-33" value="&lt;span style=&quot;font-family: &amp;#34;tahoma&amp;#34;&quot;&gt;struct change&amp;nbsp;&lt;/span&gt;" style="text;strokeColor=none;fillColor=none;align=left;verticalAlign=middle;spacingLeft=4;spacingRight=4;overflow=hidden;rotatable=0;points=[[0,0.5],[1,0.5]];portConstraint=eastwest;rounded=0;shadow=0;comic=0;fontFamily=Helvetica;fontSize=14;html=1;" parent="CMv6oAulMgxnajZp-D9U-36" vertex="1">
                    <mxGeometry y="26" width="210" height="30" as="geometry"/>
                </mxCell>
                <mxCell id="JvfS2HEiLOCauHe2CTk1-34" value="&lt;span style=&quot;font-family: &amp;#34;tahoma&amp;#34;&quot;&gt;struct queue&lt;/span&gt;" style="text;strokeColor=none;fillColor=none;align=left;verticalAlign=middle;spacingLeft=4;spacingRight=4;overflow=hidden;rotatable=0;points=[[0,0.5],[1,0.5]];portConstraint=eastwest;rounded=0;shadow=0;comic=0;fontFamily=Helvetica;fontSize=14;html=1;" parent="CMv6oAulMgxnajZp-D9U-36" vertex="1">
                    <mxGeometry y="56" width="210" height="30" as="geometry"/>
                </mxCell>
                <mxCell id="CMv6oAulMgxnajZp-D9U-38" value="" style="line;strokeWidth=1;fillColor=none;align=left;verticalAlign=middle;spacingTop=-1;spacingLeft=3;spacingRight=3;rotatable=0;labelPosition=right;points=[];portConstraint=eastwest;rounded=0;shadow=0;comic=0;fontFamily=Helvetica;fontSize=14;html=1;" parent="CMv6oAulMgxnajZp-D9U-36" vertex="1">
                    <mxGeometry y="86" width="210" height="8" as="geometry"/>
                </mxCell>
                <mxCell id="JvfS2HEiLOCauHe2CTk1-35" value="&lt;span style=&quot;font-family: &amp;#34;tahoma&amp;#34;&quot;&gt;struct change* change_create()&lt;/span&gt;" style="text;strokeColor=none;fillColor=none;align=left;verticalAlign=middle;spacingLeft=4;spacingRight=4;overflow=hidden;rotatable=0;points=[[0,0.5],[1,0.5]];portConstraint=eastwest;rounded=0;shadow=0;comic=0;fontFamily=Helvetica;fontSize=14;html=1;" parent="CMv6oAulMgxnajZp-D9U-36" vertex="1">
                    <mxGeometry y="94" width="210" height="30" as="geometry"/>
                </mxCell>
                <mxCell id="JvfS2HEiLOCauHe2CTk1-36" value="&lt;div style=&quot;font-family: &amp;#34;tahoma&amp;#34;&quot;&gt;void queue_init();&lt;/div&gt;" style="text;strokeColor=none;fillColor=none;align=left;verticalAlign=middle;spacingLeft=4;spacingRight=4;overflow=hidden;rotatable=0;points=[[0,0.5],[1,0.5]];portConstraint=eastwest;rounded=0;shadow=0;comic=0;fontFamily=Helvetica;fontSize=14;html=1;" parent="CMv6oAulMgxnajZp-D9U-36" vertex="1">
                    <mxGeometry y="124" width="210" height="30" as="geometry"/>
                </mxCell>
                <mxCell id="JvfS2HEiLOCauHe2CTk1-37" value="&lt;span style=&quot;font-family: &amp;#34;tahoma&amp;#34;&quot;&gt;int queue_is_not_empty()&lt;/span&gt;" style="text;strokeColor=none;fillColor=none;align=left;verticalAlign=middle;spacingLeft=4;spacingRight=4;overflow=hidden;rotatable=0;points=[[0,0.5],[1,0.5]];portConstraint=eastwest;rounded=0;shadow=0;comic=0;fontFamily=Helvetica;fontSize=14;html=1;" parent="CMv6oAulMgxnajZp-D9U-36" vertex="1">
                    <mxGeometry y="154" width="210" height="30" as="geometry"/>
                </mxCell>
                <mxCell id="JvfS2HEiLOCauHe2CTk1-38" value="&lt;span style=&quot;font-family: &amp;#34;tahoma&amp;#34;&quot;&gt;void queue_append()&lt;/span&gt;" style="text;strokeColor=none;fillColor=none;align=left;verticalAlign=middle;spacingLeft=4;spacingRight=4;overflow=hidden;rotatable=0;points=[[0,0.5],[1,0.5]];portConstraint=eastwest;rounded=0;shadow=0;comic=0;fontFamily=Helvetica;fontSize=14;html=1;" parent="CMv6oAulMgxnajZp-D9U-36" vertex="1">
                    <mxGeometry y="184" width="210" height="30" as="geometry"/>
                </mxCell>
                <mxCell id="JvfS2HEiLOCauHe2CTk1-39" value="&lt;span style=&quot;font-family: &amp;#34;tahoma&amp;#34;&quot;&gt;struct change* queue_pop()&lt;/span&gt;" style="text;strokeColor=none;fillColor=none;align=left;verticalAlign=middle;spacingLeft=4;spacingRight=4;overflow=hidden;rotatable=0;points=[[0,0.5],[1,0.5]];portConstraint=eastwest;rounded=0;shadow=0;comic=0;fontFamily=Helvetica;fontSize=14;html=1;" parent="CMv6oAulMgxnajZp-D9U-36" vertex="1">
                    <mxGeometry y="214" width="210" height="30" as="geometry"/>
                </mxCell>
                <mxCell id="CMv6oAulMgxnajZp-D9U-40" value="&lt;font color=&quot;#ffffff&quot;&gt;«interface»&lt;br&gt;&lt;/font&gt;&lt;b&gt;&lt;font color=&quot;#ffffff&quot;&gt;queue.h&lt;/font&gt;&lt;br&gt;&lt;/b&gt;" style="html=1;rounded=0;shadow=0;comic=0;fontFamily=Helvetica;fontSize=14;strokeColor=#56517e;strokeWidth=0;fillColor=#CC0066;" parent="ZbygJh6ZweGKEKTTffZ8-9" vertex="1">
                    <mxGeometry y="297" width="110" height="50" as="geometry"/>
                </mxCell>
                <mxCell id="CMv6oAulMgxnajZp-D9U-41" value="" style="endArrow=classic;html=1;fontFamily=Helvetica;fontSize=14;startSize=23;curved=1;entryX=1;entryY=0.5;entryDx=0;entryDy=0;strokeWidth=4;strokeColor=#CC0066;" parent="ZbygJh6ZweGKEKTTffZ8-9" source="CMv6oAulMgxnajZp-D9U-36" target="CMv6oAulMgxnajZp-D9U-40" edge="1">
                    <mxGeometry width="50" height="50" relative="1" as="geometry">
                        <mxPoint x="-6.5" y="184" as="sourcePoint"/>
                        <mxPoint x="-36.5" y="154" as="targetPoint"/>
                        <Array as="points">
                            <mxPoint x="150" y="300"/>
                        </Array>
                    </mxGeometry>
                </mxCell>
                <mxCell id="ZbygJh6ZweGKEKTTffZ8-10" value="&lt;font style=&quot;font-size: 14px&quot; color=&quot;#ffffff&quot;&gt;&lt;b&gt;Conflict&lt;/b&gt;&lt;/font&gt;" style="shape=umlFrame;whiteSpace=wrap;html=1;fillColor=#CC00CC;strokeWidth=4;strokeColor=#CC00CC;swimlaneFillColor=none;shadow=0;treeMoving=0;container=1;width=70;height=28;" parent="1" vertex="1">
                    <mxGeometry x="290" y="242" width="320" height="210" as="geometry"/>
                </mxCell>
                <mxCell id="CMv6oAulMgxnajZp-D9U-30" value="&lt;font color=&quot;#ffffff&quot;&gt;conflict.c&lt;/font&gt;" style="swimlane;fontStyle=1;align=center;verticalAlign=top;childLayout=stackLayout;horizontal=1;startSize=26;horizontalStack=0;resizeParent=1;resizeParentMax=0;resizeLast=0;collapsible=1;marginBottom=0;rounded=0;shadow=0;comic=0;fontFamily=Helvetica;fontSize=14;strokeColor=#000000;strokeWidth=2;fillColor=#CC00CC;html=1;" parent="ZbygJh6ZweGKEKTTffZ8-10" vertex="1">
                    <mxGeometry x="90" y="20" width="190" height="110" as="geometry">
                        <mxRectangle x="322.5" y="-20" width="90" height="26" as="alternateBounds"/>
                    </mxGeometry>
                </mxCell>
                <mxCell id="CMv6oAulMgxnajZp-D9U-31" value="&lt;div&gt;&lt;font face=&quot;Tahoma&quot;&gt;struct conflict&amp;nbsp;&lt;/font&gt;&lt;/div&gt;" style="text;strokeColor=none;fillColor=none;align=left;verticalAlign=middle;spacingLeft=4;spacingRight=4;overflow=hidden;rotatable=0;points=[[0,0.5],[1,0.5]];portConstraint=eastwest;rounded=0;shadow=0;comic=0;fontFamily=Helvetica;fontSize=14;html=1;" parent="CMv6oAulMgxnajZp-D9U-30" vertex="1">
                    <mxGeometry y="26" width="190" height="24" as="geometry"/>
                </mxCell>
                <mxCell id="CMv6oAulMgxnajZp-D9U-32" value="" style="line;strokeWidth=1;fillColor=none;align=left;verticalAlign=middle;spacingTop=-1;spacingLeft=3;spacingRight=3;rotatable=0;labelPosition=right;points=[];portConstraint=eastwest;rounded=0;shadow=0;comic=0;fontFamily=Helvetica;fontSize=14;html=1;" parent="CMv6oAulMgxnajZp-D9U-30" vertex="1">
                    <mxGeometry y="50" width="190" height="8" as="geometry"/>
                </mxCell>
                <mxCell id="CMv6oAulMgxnajZp-D9U-33" value="&lt;div&gt;&lt;font face=&quot;Tahoma&quot;&gt;void construct_t_conflicts()&lt;/font&gt;&lt;/div&gt;" style="text;strokeColor=none;fillColor=none;align=left;verticalAlign=middle;spacingLeft=4;spacingRight=4;overflow=hidden;rotatable=0;points=[[0,0.5],[1,0.5]];portConstraint=eastwest;rounded=0;shadow=0;comic=0;fontFamily=Helvetica;fontSize=14;html=1;" parent="CMv6oAulMgxnajZp-D9U-30" vertex="1">
                    <mxGeometry y="58" width="190" height="24" as="geometry"/>
                </mxCell>
                <mxCell id="4Sy4w3mV0IqZhs9dbPJF-2" value="&lt;div&gt;&lt;span&gt;&lt;font face=&quot;Tahoma&quot;&gt;int solve_conflict()&lt;/font&gt;&lt;/span&gt;&lt;br&gt;&lt;/div&gt;" style="text;strokeColor=none;fillColor=none;align=left;verticalAlign=middle;spacingLeft=4;spacingRight=4;overflow=hidden;rotatable=0;points=[[0,0.5],[1,0.5]];portConstraint=eastwest;rounded=0;shadow=0;comic=0;fontFamily=Helvetica;fontSize=14;html=1;" parent="CMv6oAulMgxnajZp-D9U-30" vertex="1">
                    <mxGeometry y="82" width="190" height="28" as="geometry"/>
                </mxCell>
                <mxCell id="CMv6oAulMgxnajZp-D9U-34" value="&lt;font color=&quot;#ffffff&quot;&gt;«interface»&lt;br&gt;&lt;/font&gt;&lt;b&gt;&lt;font color=&quot;#ffffff&quot;&gt;conflict.h&lt;/font&gt;&lt;br&gt;&lt;/b&gt;" style="html=1;rounded=0;shadow=0;comic=0;fontFamily=Helvetica;fontSize=14;strokeColor=#56517e;strokeWidth=0;fillColor=#CC00CC;" parent="ZbygJh6ZweGKEKTTffZ8-10" vertex="1">
                    <mxGeometry x="210" y="159" width="110" height="50" as="geometry"/>
                </mxCell>
                <mxCell id="CMv6oAulMgxnajZp-D9U-35" value="" style="endArrow=classic;html=1;fontFamily=Helvetica;fontSize=14;startSize=23;curved=1;entryX=0.5;entryY=0;entryDx=0;entryDy=0;strokeWidth=4;strokeColor=#CC00CC;" parent="ZbygJh6ZweGKEKTTffZ8-10" source="CMv6oAulMgxnajZp-D9U-30" target="CMv6oAulMgxnajZp-D9U-34" edge="1">
                    <mxGeometry width="50" height="50" relative="1" as="geometry">
                        <mxPoint x="235" y="359" as="sourcePoint"/>
                        <mxPoint x="205" y="329" as="targetPoint"/>
                    </mxGeometry>
                </mxCell>
                <mxCell id="ZbygJh6ZweGKEKTTffZ8-7" value="&lt;font style=&quot;font-size: 14px&quot; color=&quot;#ffffff&quot;&gt;&lt;b&gt;Rule&lt;/b&gt;&lt;/font&gt;" style="shape=umlFrame;whiteSpace=wrap;html=1;fillColor=#0000FF;strokeWidth=4;strokeColor=#0000FF;swimlaneFillColor=none;flipH=1;container=1;noLabel=0;snapToPoint=0;treeFolding=0;" parent="1" vertex="1">
                    <mxGeometry x="960" y="520" width="360" height="510" as="geometry"/>
                </mxCell>
                <mxCell id="2" value="" style="edgeStyle=none;html=1;startArrow=oval;startFill=1;startSize=6;" edge="1" parent="ZbygJh6ZweGKEKTTffZ8-7" source="CMv6oAulMgxnajZp-D9U-19" target="CMv6oAulMgxnajZp-D9U-17">
                    <mxGeometry relative="1" as="geometry"/>
                </mxCell>
                <mxCell id="CMv6oAulMgxnajZp-D9U-19" value="&lt;font color=&quot;#ffffff&quot;&gt;«interface»&lt;br&gt;&lt;/font&gt;&lt;b&gt;&lt;font color=&quot;#ffffff&quot;&gt;rule_ext.h&lt;/font&gt;&lt;br&gt;&lt;/b&gt;" style="html=1;rounded=0;shadow=0;comic=0;fontFamily=Helvetica;fontSize=14;strokeWidth=4;fillColor=#3399FF;strokeColor=#3399FF;" parent="ZbygJh6ZweGKEKTTffZ8-7" vertex="1">
                    <mxGeometry x="150" width="110" height="50" as="geometry"/>
                </mxCell>
                <mxCell id="CMv6oAulMgxnajZp-D9U-17" value="&lt;font color=&quot;#ffffff&quot;&gt;«interface»&lt;br&gt;&lt;/font&gt;&lt;b&gt;&lt;font color=&quot;#ffffff&quot;&gt;rule.h&lt;/font&gt;&lt;br&gt;&lt;/b&gt;" style="html=1;rounded=0;shadow=0;comic=0;fontFamily=Helvetica;fontSize=14;strokeWidth=3;fillColor=#0000CC;strokeColor=#0000CC;" parent="ZbygJh6ZweGKEKTTffZ8-7" vertex="1">
                    <mxGeometry width="110" height="50" as="geometry"/>
                </mxCell>
                <mxCell id="CMv6oAulMgxnajZp-D9U-13" value="&lt;font color=&quot;#ffffff&quot;&gt;rule.c&lt;/font&gt;" style="swimlane;fontStyle=1;align=center;verticalAlign=top;childLayout=stackLayout;horizontal=1;startSize=26;horizontalStack=0;resizeParent=1;resizeParentMax=0;resizeLast=0;collapsible=1;marginBottom=0;rounded=0;shadow=0;comic=0;fontFamily=Helvetica;fontSize=14;strokeColor=#000000;strokeWidth=2;fillColor=#0000FF;html=1;" parent="ZbygJh6ZweGKEKTTffZ8-7" vertex="1">
                    <mxGeometry x="40" y="90" width="220" height="402" as="geometry">
                        <mxRectangle x="1190" y="559" width="70" height="26" as="alternateBounds"/>
                    </mxGeometry>
                </mxCell>
                <mxCell id="JvfS2HEiLOCauHe2CTk1-18" value="&lt;div&gt;&lt;span style=&quot;font-family: &amp;#34;tahoma&amp;#34;&quot;&gt;struct next_state&lt;/span&gt;&lt;/div&gt;" style="text;strokeColor=none;fillColor=none;align=left;verticalAlign=middle;spacingLeft=4;spacingRight=4;overflow=hidden;rotatable=0;points=[[0,0.5],[1,0.5]];portConstraint=eastwest;rounded=0;shadow=0;comic=0;fontFamily=Helvetica;fontSize=14;html=1;" parent="CMv6oAulMgxnajZp-D9U-13" vertex="1">
                    <mxGeometry y="26" width="220" height="30" as="geometry"/>
                </mxCell>
                <mxCell id="JvfS2HEiLOCauHe2CTk1-17" value="&lt;div&gt;&lt;span style=&quot;font-family: &amp;#34;tahoma&amp;#34;&quot;&gt;struct rule&lt;/span&gt;&lt;/div&gt;" style="text;strokeColor=none;fillColor=none;align=left;verticalAlign=middle;spacingLeft=4;spacingRight=4;overflow=hidden;rotatable=0;points=[[0,0.5],[1,0.5]];portConstraint=eastwest;rounded=0;shadow=0;comic=0;fontFamily=Helvetica;fontSize=14;html=1;" parent="CMv6oAulMgxnajZp-D9U-13" vertex="1">
                    <mxGeometry y="56" width="220" height="30" as="geometry"/>
                </mxCell>
                <mxCell id="CMv6oAulMgxnajZp-D9U-15" value="" style="line;strokeWidth=1;fillColor=none;align=left;verticalAlign=middle;spacingTop=-1;spacingLeft=3;spacingRight=3;rotatable=0;labelPosition=right;points=[];portConstraint=eastwest;rounded=0;shadow=0;comic=0;fontFamily=Helvetica;fontSize=14;html=1;" parent="CMv6oAulMgxnajZp-D9U-13" vertex="1">
                    <mxGeometry y="86" width="220" height="8" as="geometry"/>
                </mxCell>
                <mxCell id="JvfS2HEiLOCauHe2CTk1-10" value="&lt;span style=&quot;font-family: &amp;#34;tahoma&amp;#34;&quot;&gt;void rules_init()&lt;/span&gt;" style="text;strokeColor=none;fillColor=none;align=left;verticalAlign=middle;spacingLeft=4;spacingRight=4;overflow=hidden;rotatable=0;points=[[0,0.5],[1,0.5]];portConstraint=eastwest;rounded=0;shadow=0;comic=0;fontFamily=Helvetica;fontSize=14;html=1;" parent="CMv6oAulMgxnajZp-D9U-13" vertex="1">
                    <mxGeometry y="94" width="220" height="30" as="geometry"/>
                </mxCell>
                <mxCell id="JvfS2HEiLOCauHe2CTk1-7" value="&lt;div&gt;&lt;span style=&quot;font-family: &amp;#34;tahoma&amp;#34;&quot;&gt;unsigned int rules_count()&lt;/span&gt;&lt;/div&gt;" style="text;strokeColor=none;fillColor=none;align=left;verticalAlign=middle;spacingLeft=4;spacingRight=4;overflow=hidden;rotatable=0;points=[[0,0.5],[1,0.5]];portConstraint=eastwest;rounded=0;shadow=0;comic=0;fontFamily=Helvetica;fontSize=14;html=1;" parent="CMv6oAulMgxnajZp-D9U-13" vertex="1">
                    <mxGeometry y="124" width="220" height="30" as="geometry"/>
                </mxCell>
                <mxCell id="JvfS2HEiLOCauHe2CTk1-8" value="&lt;div&gt;&lt;span style=&quot;font-family: &amp;#34;tahoma&amp;#34;&quot;&gt;struct rule* rule_get()&lt;/span&gt;&lt;/div&gt;" style="text;strokeColor=none;fillColor=none;align=left;verticalAlign=middle;spacingLeft=4;spacingRight=4;overflow=hidden;rotatable=0;points=[[0,0.5],[1,0.5]];portConstraint=eastwest;rounded=0;shadow=0;comic=0;fontFamily=Helvetica;fontSize=14;html=1;" parent="CMv6oAulMgxnajZp-D9U-13" vertex="1">
                    <mxGeometry y="154" width="220" height="30" as="geometry"/>
                </mxCell>
                <mxCell id="JvfS2HEiLOCauHe2CTk1-12" value="&lt;span style=&quot;font-family: &amp;#34;tahoma&amp;#34;&quot;&gt;int rule_match()&lt;/span&gt;" style="text;strokeColor=none;fillColor=none;align=left;verticalAlign=middle;spacingLeft=4;spacingRight=4;overflow=hidden;rotatable=0;points=[[0,0.5],[1,0.5]];portConstraint=eastwest;rounded=0;shadow=0;comic=0;fontFamily=Helvetica;fontSize=14;html=1;" parent="CMv6oAulMgxnajZp-D9U-13" vertex="1">
                    <mxGeometry y="184" width="220" height="30" as="geometry"/>
                </mxCell>
                <mxCell id="JvfS2HEiLOCauHe2CTk1-16" value="&lt;div&gt;&lt;span style=&quot;font-family: &amp;#34;tahoma&amp;#34;&quot;&gt;unsigned int rule_num_changes()&lt;/span&gt;&lt;/div&gt;" style="text;strokeColor=none;fillColor=none;align=left;verticalAlign=middle;spacingLeft=4;spacingRight=4;overflow=hidden;rotatable=0;points=[[0,0.5],[1,0.5]];portConstraint=eastwest;rounded=0;shadow=0;comic=0;fontFamily=Helvetica;fontSize=14;html=1;" parent="CMv6oAulMgxnajZp-D9U-13" vertex="1">
                    <mxGeometry y="214" width="220" height="30" as="geometry"/>
                </mxCell>
                <mxCell id="JvfS2HEiLOCauHe2CTk1-14" value="&lt;div&gt;&lt;font face=&quot;Tahoma&quot;&gt;unsigned int rule_change_to()&lt;/font&gt;&lt;/div&gt;" style="text;strokeColor=none;fillColor=none;align=left;verticalAlign=middle;spacingLeft=4;spacingRight=4;overflow=hidden;rotatable=0;points=[[0,0.5],[1,0.5]];portConstraint=eastwest;rounded=0;shadow=0;comic=0;fontFamily=Helvetica;fontSize=14;html=1;" parent="CMv6oAulMgxnajZp-D9U-13" vertex="1">
                    <mxGeometry y="244" width="220" height="30" as="geometry"/>
                </mxCell>
                <mxCell id="JvfS2HEiLOCauHe2CTk1-15" value="&lt;div&gt;&lt;font face=&quot;Tahoma&quot;&gt;int rule_change_dx()&lt;/font&gt;&lt;/div&gt;" style="text;strokeColor=none;fillColor=none;align=left;verticalAlign=middle;spacingLeft=4;spacingRight=4;overflow=hidden;rotatable=0;points=[[0,0.5],[1,0.5]];portConstraint=eastwest;rounded=0;shadow=0;comic=0;fontFamily=Helvetica;fontSize=14;html=1;" parent="CMv6oAulMgxnajZp-D9U-13" vertex="1">
                    <mxGeometry y="274" width="220" height="30" as="geometry"/>
                </mxCell>
                <mxCell id="JvfS2HEiLOCauHe2CTk1-13" value="&lt;span style=&quot;font-family: &amp;#34;tahoma&amp;#34;&quot;&gt;int rule_change_dy()&lt;/span&gt;" style="text;strokeColor=none;fillColor=none;align=left;verticalAlign=middle;spacingLeft=4;spacingRight=4;overflow=hidden;rotatable=0;points=[[0,0.5],[1,0.5]];portConstraint=eastwest;rounded=0;shadow=0;comic=0;fontFamily=Helvetica;fontSize=14;html=1;" parent="CMv6oAulMgxnajZp-D9U-13" vertex="1">
                    <mxGeometry y="304" width="220" height="30" as="geometry"/>
                </mxCell>
                <mxCell id="4Sy4w3mV0IqZhs9dbPJF-13" value="" style="line;strokeWidth=1;fillColor=none;align=left;verticalAlign=middle;spacingTop=-1;spacingLeft=3;spacingRight=3;rotatable=0;labelPosition=right;points=[];portConstraint=eastwest;rounded=0;shadow=0;comic=0;fontFamily=Helvetica;fontSize=14;html=1;" parent="CMv6oAulMgxnajZp-D9U-13" vertex="1">
                    <mxGeometry y="334" width="220" height="8" as="geometry"/>
                </mxCell>
                <mxCell id="JvfS2HEiLOCauHe2CTk1-19" value="&lt;div&gt;&lt;font face=&quot;Tahoma&quot;&gt;void find_neighbors()&lt;/font&gt;&lt;/div&gt;" style="text;strokeColor=none;fillColor=none;align=left;verticalAlign=middle;spacingLeft=4;spacingRight=4;overflow=hidden;rotatable=0;points=[[0,0.5],[1,0.5]];portConstraint=eastwest;rounded=0;shadow=0;comic=0;fontFamily=Helvetica;fontSize=14;html=1;" parent="CMv6oAulMgxnajZp-D9U-13" vertex="1">
                    <mxGeometry y="342" width="220" height="30" as="geometry"/>
                </mxCell>
                <mxCell id="JvfS2HEiLOCauHe2CTk1-20" value="&lt;span style=&quot;font-family: &amp;#34;tahoma&amp;#34;&quot;&gt;int compare_patterns()&lt;/span&gt;" style="text;strokeColor=none;fillColor=none;align=left;verticalAlign=middle;spacingLeft=4;spacingRight=4;overflow=hidden;rotatable=0;points=[[0,0.5],[1,0.5]];portConstraint=eastwest;rounded=0;shadow=0;comic=0;fontFamily=Helvetica;fontSize=14;html=1;" parent="CMv6oAulMgxnajZp-D9U-13" vertex="1">
                    <mxGeometry y="372" width="220" height="30" as="geometry"/>
                </mxCell>
                <mxCell id="CMv6oAulMgxnajZp-D9U-12" style="rounded=1;html=1;jettySize=auto;curved=1;endArrow=block;dashed=0;endFill=1;entryX=1;entryY=0.5;entryDx=0;entryDy=0;strokeColor=#0000CC;strokeWidth=4;startArrow=oval;startFill=1;" parent="ZbygJh6ZweGKEKTTffZ8-7" target="CMv6oAulMgxnajZp-D9U-17" edge="1">
                    <mxGeometry relative="1" as="geometry">
                        <Array as="points"/>
                        <mxPoint x="-109" y="-699" as="targetPoint"/>
                        <mxPoint x="150" y="25" as="sourcePoint"/>
                    </mxGeometry>
                </mxCell>
                <mxCell id="CMv6oAulMgxnajZp-D9U-20" value="" style="endArrow=classic;html=1;fontFamily=Helvetica;fontSize=14;startSize=6;curved=1;entryX=0.5;entryY=1;entryDx=0;entryDy=0;strokeWidth=4;strokeColor=#3399FF;exitX=0.5;exitY=0;exitDx=0;exitDy=0;startArrow=oval;startFill=1;" parent="ZbygJh6ZweGKEKTTffZ8-7" source="CMv6oAulMgxnajZp-D9U-13" target="CMv6oAulMgxnajZp-D9U-19" edge="1">
                    <mxGeometry width="50" height="50" relative="1" as="geometry">
                        <mxPoint x="541" y="-490" as="sourcePoint"/>
                        <mxPoint x="-316" y="-499" as="targetPoint"/>
                    </mxGeometry>
                </mxCell>
                <mxCell id="CMv6oAulMgxnajZp-D9U-18" value="" style="endArrow=classic;html=1;fontFamily=Helvetica;fontSize=14;startSize=6;curved=1;entryX=0.5;entryY=1;entryDx=0;entryDy=0;strokeWidth=4;strokeColor=#0000CC;exitX=0.25;exitY=0;exitDx=0;exitDy=0;startArrow=oval;startFill=1;" parent="ZbygJh6ZweGKEKTTffZ8-7" source="CMv6oAulMgxnajZp-D9U-13" target="CMv6oAulMgxnajZp-D9U-17" edge="1">
                    <mxGeometry width="50" height="50" relative="1" as="geometry">
                        <mxPoint x="-181" y="-529" as="sourcePoint"/>
                        <mxPoint x="-211" y="-559" as="targetPoint"/>
                    </mxGeometry>
                </mxCell>
                <mxCell id="ZbygJh6ZweGKEKTTffZ8-8" value="&lt;font style=&quot;font-size: 14px&quot; color=&quot;#ffffff&quot;&gt;&lt;b&gt;World&lt;/b&gt;&lt;/font&gt;&lt;div style=&quot;color: rgb(0 , 0 , 0) ; font-family: &amp;#34;helvetica&amp;#34; ; font-size: 14px ; font-style: normal ; font-weight: 400 ; letter-spacing: normal ; text-align: left ; text-indent: 0px ; text-transform: none ; word-spacing: 0px ; background-color: rgb(248 , 249 , 250)&quot;&gt;&lt;/div&gt;" style="shape=umlFrame;whiteSpace=wrap;html=1;fillColor=#009900;strokeWidth=4;strokeColor=#009900;swimlaneFillColor=none;overflow=visible;noLabel=0;fixDash=0;autosize=0;container=1;portConstraintRotation=0;" parent="1" vertex="1">
                    <mxGeometry x="390" y="550" width="365" height="280" as="geometry">
                        <mxRectangle x="250" y="492" width="70" height="20" as="alternateBounds"/>
                    </mxGeometry>
                </mxCell>
                <mxCell id="CMv6oAulMgxnajZp-D9U-1" value="world.c" style="swimlane;fontStyle=1;align=center;verticalAlign=top;childLayout=stackLayout;horizontal=1;startSize=26;horizontalStack=0;resizeParent=1;resizeParentMax=0;resizeLast=0;collapsible=1;marginBottom=0;rounded=0;shadow=0;comic=0;fontFamily=Helvetica;fontSize=14;strokeColor=#000000;strokeWidth=2;fillColor=#009900;html=1;" parent="ZbygJh6ZweGKEKTTffZ8-8" vertex="1">
                    <mxGeometry x="150" y="80.00333333333333" width="170" height="169" as="geometry">
                        <mxRectangle x="16.99000000000001" y="93" width="80" height="26" as="alternateBounds"/>
                    </mxGeometry>
                </mxCell>
                <mxCell id="JvfS2HEiLOCauHe2CTk1-27" value="&lt;span style=&quot;color: rgb(0 , 0 , 0)&quot;&gt;enum state&lt;/span&gt;" style="text;whiteSpace=wrap;html=1;fontSize=14;fontFamily=Tahoma;fontColor=#FFFFFF;verticalAlign=middle;spacing=2;spacingLeft=4;spacingRight=4;" parent="CMv6oAulMgxnajZp-D9U-1" vertex="1">
                    <mxGeometry y="26" width="170" height="36.83333333333333" as="geometry"/>
                </mxCell>
                <mxCell id="CMv6oAulMgxnajZp-D9U-3" value="" style="line;strokeWidth=1;fillColor=none;align=left;verticalAlign=middle;spacingTop=-1;spacingLeft=3;spacingRight=3;rotatable=0;labelPosition=right;points=[];portConstraint=eastwest;rounded=0;shadow=0;comic=0;fontFamily=Helvetica;fontSize=14;html=1;" parent="CMv6oAulMgxnajZp-D9U-1" vertex="1">
                    <mxGeometry y="62.83333333333333" width="170" height="8.666666666666666" as="geometry"/>
                </mxCell>
                <mxCell id="JvfS2HEiLOCauHe2CTk1-30" value="&lt;span style=&quot;color: rgb(0 , 0 , 0)&quot;&gt;struct world world_init()&lt;/span&gt;" style="text;whiteSpace=wrap;html=1;fontSize=14;fontFamily=Tahoma;fontColor=#FFFFFF;verticalAlign=middle;spacing=2;spacingLeft=4;spacingRight=4;" parent="CMv6oAulMgxnajZp-D9U-1" vertex="1">
                    <mxGeometry y="71.5" width="170" height="32.5" as="geometry"/>
                </mxCell>
                <mxCell id="JvfS2HEiLOCauHe2CTk1-31" value="&lt;span style=&quot;color: rgb(0 , 0 , 0) ; font-family: &amp;#34;tahoma&amp;#34;&quot;&gt;void world_disp()&lt;/span&gt;" style="text;whiteSpace=wrap;html=1;fontSize=14;fontFamily=Tahoma;fontColor=#FFFFFF;verticalAlign=middle;spacing=2;spacingLeft=4;spacingRight=4;" parent="CMv6oAulMgxnajZp-D9U-1" vertex="1">
                    <mxGeometry y="104" width="170" height="32.5" as="geometry"/>
                </mxCell>
                <mxCell id="JvfS2HEiLOCauHe2CTk1-32" value="&lt;span style=&quot;color: rgb(0 , 0 , 0) ; font-family: &amp;#34;tahoma&amp;#34;&quot;&gt;void world_apply_rule(&lt;/span&gt;&lt;span style=&quot;color: rgb(0 , 0 , 0) ; font-family: &amp;#34;tahoma&amp;#34;&quot;&gt;)&lt;/span&gt;" style="text;whiteSpace=wrap;html=1;fontSize=14;fontFamily=Tahoma;fontColor=#FFFFFF;verticalAlign=middle;spacing=2;spacingLeft=4;spacingRight=4;" parent="CMv6oAulMgxnajZp-D9U-1" vertex="1">
                    <mxGeometry y="136.5" width="170" height="32.5" as="geometry"/>
                </mxCell>
                <mxCell id="CMv6oAulMgxnajZp-D9U-5" value="&lt;font color=&quot;#ffffff&quot;&gt;«interface»&lt;br&gt;&lt;/font&gt;&lt;b&gt;&lt;font color=&quot;#ffffff&quot;&gt;world.h&lt;/font&gt;&lt;br&gt;&lt;/b&gt;" style="html=1;rounded=0;shadow=0;comic=0;fontFamily=Helvetica;fontSize=14;strokeWidth=4;fillColor=#006600;strokeColor=#006600;" parent="ZbygJh6ZweGKEKTTffZ8-8" vertex="1">
                    <mxGeometry x="255" width="110" height="54.166666666666664" as="geometry"/>
                </mxCell>
                <mxCell id="CMv6oAulMgxnajZp-D9U-10" value="«interface»&lt;br&gt;&lt;b&gt;world_ext.h&lt;br&gt;&lt;/b&gt;" style="html=1;rounded=0;shadow=0;comic=0;fontFamily=Helvetica;fontSize=14;strokeWidth=4;fillColor=#00CC00;strokeColor=#00CC00;" parent="ZbygJh6ZweGKEKTTffZ8-8" vertex="1">
                    <mxGeometry x="110" width="110" height="54.166666666666664" as="geometry"/>
                </mxCell>
                <mxCell id="CMv6oAulMgxnajZp-D9U-6" value="" style="endArrow=classic;html=1;fontFamily=Helvetica;fontSize=14;startSize=23;curved=1;entryX=0.5;entryY=1;entryDx=0;entryDy=0;strokeWidth=2;strokeColor=#006600;exitX=0.75;exitY=0;exitDx=0;exitDy=0;" parent="ZbygJh6ZweGKEKTTffZ8-8" source="CMv6oAulMgxnajZp-D9U-1" target="CMv6oAulMgxnajZp-D9U-5" edge="1">
                    <mxGeometry width="50" height="50" relative="1" as="geometry">
                        <mxPoint x="495.02" y="705.25" as="sourcePoint"/>
                        <mxPoint x="465.02" y="672.75" as="targetPoint"/>
                    </mxGeometry>
                </mxCell>
                <mxCell id="CMv6oAulMgxnajZp-D9U-11" value="" style="endArrow=classic;html=1;fontFamily=Helvetica;fontSize=14;startSize=23;curved=1;entryX=0.5;entryY=1;entryDx=0;entryDy=0;strokeWidth=4;strokeColor=#00CC00;" parent="ZbygJh6ZweGKEKTTffZ8-8" source="CMv6oAulMgxnajZp-D9U-1" target="CMv6oAulMgxnajZp-D9U-10" edge="1">
                    <mxGeometry width="50" height="50" relative="1" as="geometry">
                        <mxPoint x="347.02" y="748.5833333333333" as="sourcePoint"/>
                        <mxPoint x="360.02" y="737.75" as="targetPoint"/>
                    </mxGeometry>
                </mxCell>
                <mxCell id="edge11" style="rounded=1;html=1;exitX=1;exitY=0.5;jettySize=auto;curved=1;endArrow=block;dashed=0;endFill=1;entryX=0;entryY=0.5;entryDx=0;entryDy=0;exitDx=0;exitDy=0;strokeWidth=4;strokeColor=#006600;" parent="ZbygJh6ZweGKEKTTffZ8-8" source="CMv6oAulMgxnajZp-D9U-10" target="CMv6oAulMgxnajZp-D9U-5" edge="1">
                    <mxGeometry relative="1" as="geometry">
                        <Array as="points"/>
                        <mxPoint x="567.02" y="521.0833333333333" as="targetPoint"/>
                    </mxGeometry>
                </mxCell>
                <mxCell id="JvfS2HEiLOCauHe2CTk1-22" value="Text" style="text;html=1;align=center;verticalAlign=middle;resizable=0;points=[];autosize=1;strokeColor=none;fillColor=none;fontSize=14;fontFamily=Tahoma;fontColor=#FFFFFF;" parent="1" vertex="1">
                    <mxGeometry x="620" y="960" width="40" height="20" as="geometry"/>
                </mxCell>
            </root>
        </mxGraphModel>
    </diagram>
</mxfile>